<?xml version="1.0" standalone="no"?>
<!DOCTYPE svg PUBLIC "-//W3C//DTD SVG 20010904//EN"
 "http://www.w3.org/TR/2001/REC-SVG-20010904/DTD/svg10.dtd">
<svg version="1.0" xmlns="http://www.w3.org/2000/svg"
 width="980.000000pt" height="468.000000pt" viewBox="0 0 980.000000 468.000000"
 preserveAspectRatio="xMidYMid meet">

<g transform="translate(0.000000,468.000000) scale(0.100000,-0.100000)"
fill="#000000" stroke="none">
<path d="M440 4666 c-164 -47 -285 -158 -330 -305 -37 -118 -22 -211 62 -374
124 -241 374 -573 666 -884 179 -191 232 -255 232 -283 0 -22 -83 -100 -413
-389 -357 -312 -595 -536 -619 -583 -45 -87 -50 -287 -8 -371 30 -60 164 -191
221 -216 58 -26 179 -36 250 -22 116 24 179 73 878 680 362 315 478 410 492
406 10 -4 80 -35 154 -71 288 -136 759 -308 1030 -374 72 -18 145 -38 163 -46
31 -13 33 -16 27 -51 -19 -111 -55 -288 -136 -648 -110 -498 -132 -627 -127
-760 3 -88 7 -107 33 -153 36 -66 117 -142 188 -176 152 -75 350 -48 471 64
57 52 78 87 105 168 33 103 117 440 231 936 62 267 115 473 122 477 7 5 63 9
123 9 313 0 1278 38 1446 56 53 6 56 5 82 -25 46 -55 94 -150 262 -519 273
-600 392 -837 447 -892 83 -83 350 -130 453 -80 51 25 171 147 210 213 55 96
44 229 -37 452 -23 61 -106 256 -186 435 -191 428 -281 634 -279 636 1 1 94
39 207 84 256 102 616 279 825 406 196 118 300 174 325 174 22 0 161 -113 462
-377 420 -367 664 -568 723 -594 57 -25 185 -42 251 -33 125 15 257 113 312
232 50 109 53 249 8 344 -40 83 -290 323 -811 778 -159 139 -291 257 -293 261
-2 5 57 91 131 191 229 310 354 522 408 692 61 191 -32 404 -215 490 -120 57
-250 57 -376 0 -79 -35 -145 -108 -229 -251 -177 -302 -338 -501 -600 -740
-294 -269 -577 -464 -896 -619 -483 -233 -949 -363 -1515 -421 -143 -14 -266
-18 -665 -18 -504 0 -627 6 -929 46 -948 126 -1773 525 -2386 1155 -153 157
-224 247 -376 477 -146 219 -260 345 -354 390 -67 32 -157 42 -220 23z"/>
</g>
</svg>
