<?xml version="1.0" encoding="iso-8859-1"?>
<!-- Generator: Adobe Illustrator 19.0.0, SVG Export Plug-In . SVG Version: 6.00 Build 0)  -->
<svg version="1.1" id="Capa_1" xmlns="http://www.w3.org/2000/svg" xmlns:xlink="http://www.w3.org/1999/xlink" x="0px" y="0px"
	 viewBox="0 0 512 512" style="enable-background:new 0 0 512 512;" xml:space="preserve">
<g>
	<g>
		<path d="M48.002,256h-32c-8.832,0-16,7.168-16,16v224c0,8.832,7.168,16,16,16h32c8.832,0,16-7.168,16-16V272
			C64.002,263.168,56.834,256,48.002,256z"/>
	</g>
</g>
<g>
	<g>
		<path d="M501.89,290.528c-16.256-20.96-46.464-24.704-67.328-8.416l-118.016,91.776C308.098,380.448,297.73,384,287.074,384
			H176.002c44.192,0,80-35.808,80-80c0-8.832-7.168-16-16-16h-144v96v96h212.992c17.792,0,35.072-5.92,49.12-16.864l135.36-105.28
			C514.402,341.6,518.146,311.456,501.89,290.528z"/>
	</g>
</g>
<g>
	<g>
		<path d="M304.002,0c-97.216,0-176,78.784-176,176c0,28.832,7.072,55.968,19.36,80h92.64c26.464,0,48,21.536,48,48
			c0,16.352-3.744,31.84-10.08,45.856c3.744,0.544,7.488,1.088,11.296,1.408c2.72-0.384,5.44-0.896,7.648-2.624l118.016-91.776
			c15.2-11.84,33.888-17.28,52.768-16.416c7.872-20,12.352-41.664,12.352-64.448C480.002,78.784,401.218,0,304.002,0z M304.002,160
			c26.464,0,48,21.536,48,48c0,20.832-13.408,38.432-32,45.056V272c0,8.832-7.168,16-16,16c-8.832,0-16-7.168-16-16v-16h-16
			c-8.832,0-16-7.168-16-16c0-8.832,7.168-16,16-16h32c8.832,0,16-7.2,16-16s-7.168-16-16-16c-26.464,0-48-21.536-48-48
			c0-20.832,13.408-38.432,32-45.056V80c0-8.832,7.168-16,16-16c8.832,0,16,7.168,16,16v16h16c8.832,0,16,7.168,16,16
			c0,8.832-7.168,16-16,16h-32c-8.832,0-16,7.2-16,16S295.17,160,304.002,160z"/>
	</g>
</g>
<g>
</g>
<g>
</g>
<g>
</g>
<g>
</g>
<g>
</g>
<g>
</g>
<g>
</g>
<g>
</g>
<g>
</g>
<g>
</g>
<g>
</g>
<g>
</g>
<g>
</g>
<g>
</g>
<g>
</g>
</svg>
