<svg id="Capa_1" enable-background="new 0 0 512 512" height="512" viewBox="0 0 512 512" width="512" xmlns="http://www.w3.org/2000/svg"><g><path d="m256 226c-41.353 0-75 33.647-75 75s33.647 75 75 75 75-33.647 75-75-33.647-75-75-75zm30 90h-15v15c0 8.291-6.709 15-15 15s-15-6.709-15-15v-15h-15c-8.291 0-15-6.709-15-15s6.709-15 15-15h15v-15c0-8.291 6.709-15 15-15s15 6.709 15 15v15h15c8.291 0 15 6.709 15 15s-6.709 15-15 15z"/><path d="m46 496h15v-390h-15c-24.814 0-46 20.186-46 45v300c0 24.814 21.186 45 46 45z"/><path d="m421 106h-30v-45c0-24.814-20.186-45-45-45h-180c-24.814 0-45 20.186-45 45v45h-30v390h330zm-270-45c0-8.276 6.724-15 15-15h180c8.276 0 15 6.724 15 15v45h-210zm105 345c-57.891 0-105-47.109-105-105s47.109-105 105-105 105 47.109 105 105-47.109 105-105 105z"/><path d="m466 106h-15v390h15c24.814 0 46-20.186 46-45v-300c0-24.814-21.186-45-46-45z"/></g></svg>